<svg xmlns="http://www.w3.org/2000/svg" viewBox="0 0 64 64" id="mountain">
  <path fill="#222"
    d="m26.649 34.8 18.784 11.967H2.188l12.444-14.98 4.249 7.646a1.5 1.5 0 0 0 .829.692l10.471 3.554a1.5 1.5 0 0 0 .964-2.841l-9.923-3.368-2.047-3.683 3.734 2.472a1.5 1.5 0 0 0 1.69-.023ZM50.1 26.434l-3.1-.472a1.5 1.5 0 0 1-.941-.541l-1.27-1.571-1.33 9.034a1.5 1.5 0 0 1-.454.873l-2.967 2.8a1.5 1.5 0 1 1-2.06-2.182l2.589-2.444 1-6.769-8.641 10.077 13.1 8.35h15.786ZM26.719 23.97a3.369 3.369 0 1 0-3.368-3.37 3.372 3.372 0 0 0 3.368 3.37Z">
  </path>
</svg>