<svg xmlns="http://www.w3.org/2000/svg" xmlns:xlink="http://www.w3.org/1999/xlink" viewBox="0 0 16 16" id="Mountain"><defs><linearGradient id="a"><stop offset="0" stop-color="#094067" class="stopColor000092 svgShape"></stop><stop offset="1" stop-color="#87ddfd" class="stopColorff00f3 svgShape"></stop></linearGradient><linearGradient id="b" x1=".005" x2="13" y1="8.003" y2="8.003" gradientUnits="userSpaceOnUse" xlink:href="#a"></linearGradient></defs><path fill="url(#b)" d="M5.5 3.506a.963.963 0 0 0-.793.41L.078 11.74a.5.5 0 0 0 .43.76h14.984a.5.5 0 0 0 .428-.76l-2.602-4.38-.158-.268-.945-1.59a.5.5 0 0 0-.05-.059.88.88 0 0 0-1.397.059L8.996 8.48 6.295 3.916a.966.966 0 0 0-.795-.41Zm-.002 1.03L6.893 6.89l-.399.398-.65-.643a.5.5 0 0 0-.701 0l-.553.547-.334-.554Zm5.994 1.712.66 1.111-.66.506-.66-.504ZM3.678 7.615l.386.64a.5.5 0 0 0 .784.097l.65-.65.64.65a.5.5 0 0 0 .71 0l.57-.573 2.2 3.717H1.384zm8.988.608 1.947 3.273H10.78L9.58 9.466l.736-1.24.873.665a.5.5 0 0 0 .606 0z" color="#000" font-family="sans-serif" font-weight="400" overflow="visible" style="line-height:normal;text-indent:0;text-align:start;text-decoration-line:none;text-decoration-style:solid;text-decoration-color:#000;text-transform:none;block-progression:tb;isolation:auto;mix-blend-mode:normal"></path></svg>